<?xml version="1.0" standalone="no"?>
<!DOCTYPE svg PUBLIC "-//W3C//DTD SVG 20010904//EN"
 "http://www.w3.org/TR/2001/REC-SVG-20010904/DTD/svg10.dtd">
<svg version="1.0" xmlns="http://www.w3.org/2000/svg"
 width="1024.000000pt" height="827.000000pt" viewBox="0 0 1024.000000 827.000000"
 preserveAspectRatio="xMidYMid meet">

<g transform="translate(0.000000,827.000000) scale(0.100000,-0.100000)"
fill="#000000" stroke="none">
<path d="M1535 7833 c-4 -15 -9 -38 -11 -50 -4 -30 -53 -209 -66 -241 -6 -15
-12 -31 -14 -37 -1 -5 -8 -23 -15 -40 -7 -16 -13 -32 -14 -35 -6 -26 -30 -80
-35 -80 -4 0 -7 -6 -7 -13 0 -17 -65 -127 -75 -127 -5 0 -8 -6 -8 -14 0 -13
-146 -168 -200 -211 -71 -58 -114 -89 -176 -125 l-69 -40 135 0 135 0 -25 -21
c-14 -11 -65 -47 -115 -81 -49 -33 -91 -60 -92 -61 -1 -1 25 -1 58 0 32 1 59
-3 59 -8 0 -5 -4 -9 -9 -9 -4 0 -19 -10 -33 -22 -52 -47 -90 -74 -180 -130
l-91 -58 211 0 c117 0 212 -4 212 -9 0 -4 -18 -21 -40 -36 -22 -15 -40 -31
-40 -35 0 -9 -137 -110 -149 -110 -6 0 -11 -3 -11 -8 0 -4 -28 -23 -62 -42
l-63 -35 118 -3 c64 -1 117 -6 117 -10 0 -8 -82 -86 -123 -117 -15 -11 -41
-32 -59 -47 -40 -35 -188 -135 -213 -144 -11 -5 -24 -12 -30 -16 -5 -5 -19
-15 -30 -23 -18 -13 38 -14 453 -12 l472 2 0 -1981 0 -1982 23 -6 c28 -7 76
-7 105 0 l22 6 0 1979 0 1979 390 0 390 0 0 -1980 0 -1980 55 0 55 0 0 1982 0
1982 47 -2 c41 -2 45 0 30 11 -10 6 -29 21 -42 32 l-24 20 287 -2 c253 -2 285
-1 267 12 -11 8 -24 18 -30 23 -5 4 -18 11 -28 15 -11 4 -53 31 -95 60 l-76
52 175 5 174 5 -40 24 c-22 14 -56 33 -76 43 -20 10 -45 27 -55 37 -11 10 -25
20 -31 22 -11 4 -57 40 -115 89 l-29 25 63 -1 c35 0 76 2 91 4 28 5 28 5 -12
23 -49 21 -147 88 -192 129 l-33 30 146 0 c90 0 149 4 153 10 4 6 3 10 -2 9
-17 -3 -32 1 -45 14 -7 6 -30 21 -51 31 -20 11 -37 23 -37 28 0 4 -5 8 -11 8
-48 0 -329 289 -329 339 0 6 -4 11 -10 11 -5 0 -12 11 -16 25 -3 14 -9 25 -14
25 -6 0 -66 120 -91 185 l-11 30 -13 -37 c-17 -47 -95 -201 -105 -208 -4 -3
-10 -14 -14 -25 -4 -11 -15 -30 -26 -43 l-19 -23 -42 22 c-61 31 -149 90 -149
100 0 5 -5 9 -11 9 -14 0 -25 10 -129 113 -101 99 -113 114 -159 190 -40 64
-117 235 -124 273 -2 10 -9 33 -16 49 -14 34 -58 207 -63 247 -5 39 -14 43
-23 11z m705 -1025 c0 -6 -7 -18 -15 -27 -8 -9 -27 -31 -41 -48 -25 -32 -54
-44 -54 -23 0 6 -6 10 -13 10 -7 0 -23 9 -35 20 -12 11 -25 20 -29 20 -4 0
-24 14 -43 30 l-35 29 133 1 c94 0 132 -3 132 -12z m-150 -387 c0 -5 -13 -19
-29 -30 l-29 -21 -26 21 c-39 30 -32 39 29 39 30 0 55 -4 55 -9z"/>
<path d="M2067 7320 c3 -11 9 -23 14 -26 5 -3 9 -14 9 -25 0 -20 0 -20 -30 1
-33 24 -71 21 -51 -4 6 -7 25 -16 41 -20 17 -3 30 -10 30 -16 0 -9 -7 -11 -52
-14 -23 -1 -32 -12 -24 -32 6 -15 8 -15 24 -2 21 19 62 33 62 21 0 -4 -11 -21
-25 -37 -30 -35 -31 -46 -5 -46 11 0 20 7 20 15 0 8 5 26 12 40 14 31 28 16
28 -32 0 -26 4 -33 20 -33 20 0 19 19 -2 47 -5 7 -8 20 -6 30 3 16 7 15 30 -8
16 -16 31 -23 39 -19 12 8 5 42 -8 38 -14 -4 -53 13 -53 23 0 9 20 13 52 11 9
-1 21 5 28 13 10 12 9 16 -4 21 -9 3 -22 2 -29 -4 -6 -5 -23 -13 -35 -17 -22
-6 -23 -5 -11 17 7 12 19 28 27 34 8 6 12 16 8 22 -11 18 -36 14 -36 -5 -1
-10 -7 -29 -14 -42 l-13 -23 -6 23 c-4 13 -7 34 -7 47 0 15 -6 22 -19 22 -14
0 -18 -5 -14 -20z"/>
<path d="M7171 7301 c-10 -7 -11 -13 -2 -29 22 -41 7 -57 -24 -26 -12 12 -19
14 -28 5 -8 -8 -2 -14 21 -22 35 -12 43 -28 15 -30 -41 -3 -47 -5 -51 -18 -5
-14 18 -12 63 5 16 6 16 5 1 -24 -18 -35 -19 -42 -8 -42 4 0 13 14 21 32 14
31 14 31 23 9 4 -13 6 -27 3 -31 -7 -11 12 -23 24 -15 6 3 4 17 -4 32 -18 34
-12 40 19 19 31 -20 36 -20 36 -2 0 8 -11 17 -25 20 -44 11 -26 33 23 27 6 -1
12 5 12 14 0 18 -13 19 -42 4 -30 -16 -34 -2 -9 31 16 22 18 30 8 30 -8 0 -20
-14 -27 -30 -15 -36 -21 -33 -29 15 -4 26 -9 32 -20 26z"/>
<path d="M8200 7279 c0 -14 -3 -29 -7 -33 -4 -3 -8 -15 -10 -26 -9 -61 -68
-145 -143 -203 -34 -26 -34 -27 -10 -28 14 -1 30 -1 35 1 17 3 -7 -17 -40 -34
-29 -16 -30 -16 -5 -16 l25 0 -30 -25 c-41 -34 -51 -31 -76 17 -26 51 -60 148
-52 148 3 0 1 6 -5 13 -6 6 -16 40 -23 74 -7 34 -14 61 -16 59 -2 -1 -12 -38
-23 -82 -36 -138 -76 -230 -138 -317 -30 -41 -61 -71 -169 -157 -6 -5 -26 -18
-45 -30 l-33 -20 68 0 c37 0 67 -4 67 -9 0 -5 -27 -27 -60 -50 l-60 -40 36 -3
37 -3 -49 -35 c-26 -19 -68 -47 -93 -62 -26 -15 -39 -28 -31 -28 8 -1 63 -1
123 0 59 1 107 -3 107 -8 0 -12 -107 -96 -162 -127 l-43 -25 75 0 74 0 -49
-45 c-86 -79 -122 -100 -148 -87 -21 10 -20 11 11 11 38 1 41 13 8 31 -55 29
-137 138 -150 197 -20 100 -31 112 -40 50 -7 -48 -60 -167 -74 -167 -5 0 -17
9 -27 20 -18 19 -17 20 6 20 23 0 23 1 -6 19 -28 17 -77 62 -101 93 -21 27
-38 63 -59 132 l-22 68 -22 -70 c-12 -39 -26 -74 -31 -77 -6 -4 -8 -10 -5 -15
6 -9 -94 -120 -108 -120 -4 0 -15 -7 -23 -15 -14 -13 -13 -15 7 -15 18 0 19
-2 9 -15 -7 -8 -19 -15 -26 -15 -8 0 -14 -4 -14 -9 0 -5 -8 -12 -17 -14 -17
-4 42 -11 62 -7 5 1 1 -8 -9 -19 -11 -12 -25 -21 -33 -21 -7 0 -13 -4 -13 -9
0 -5 -12 -14 -27 -19 -24 -9 -18 -11 40 -11 37 -1 67 -3 67 -6 0 -10 -54 -54
-72 -60 -27 -9 -22 -23 7 -20 14 2 25 0 25 -3 0 -12 -68 -70 -103 -89 l-32
-18 127 -3 128 -3 0 -2047 0 -2047 60 -3 60 -3 0 1986 0 1985 70 0 70 0 0
-1985 0 -1985 100 0 100 0 0 1985 0 1985 105 0 c58 0 105 3 105 8 0 4 -15 15
-32 25 -18 10 -50 33 -71 51 l-38 32 28 -1 c46 -2 46 5 -2 37 -25 16 -47 34
-51 39 -3 5 22 9 56 9 39 0 59 4 55 10 -4 7 37 10 127 8 l133 -3 0 -2092 0
-2093 143 0 142 0 0 2095 0 2096 100 -2 100 -1 0 -2093 0 -2093 43 -3 42 -4
-3 2038 -2 2037 115 0 115 0 0 -2035 0 -2035 40 0 40 0 0 2035 0 2035 170 0
170 0 0 -2035 0 -2035 50 0 50 0 2 2032 3 2033 100 0 100 0 3 -2032 2 -2033
89 0 c84 0 89 1 95 23 3 12 5 928 3 2035 l-2 2012 220 0 220 1 -81 38 c-76 36
-226 130 -238 149 -3 5 5 9 17 9 12 1 54 1 92 2 l70 1 -40 28 c-81 55 -205
175 -205 198 0 5 54 7 120 6 66 -2 120 -2 120 1 0 2 -17 16 -37 29 -45 30
-123 100 -123 111 0 4 51 7 113 8 81 0 105 3 88 10 -33 13 -98 64 -154 121
l-48 48 53 0 52 0 -22 20 c-12 11 -25 20 -30 20 -5 0 -18 11 -30 25 -12 14
-26 25 -31 25 -14 0 -110 119 -150 185 -19 31 -49 93 -67 138 l-32 82 -13 -30
c-7 -16 -13 -37 -15 -45 -6 -29 -87 -180 -110 -205 -13 -14 -24 -29 -24 -33 0
-5 -20 -27 -43 -50 l-44 -43 -35 70 -35 71 -37 -76 c-41 -81 -115 -167 -187
-215 l-44 -29 79 0 79 0 -19 -22 c-10 -11 -45 -41 -78 -65 l-58 -43 56 0 c31
0 56 -3 56 -7 0 -5 -19 -23 -42 -42 l-41 -35 -24 30 c-13 16 -32 39 -43 52
-32 38 -82 131 -105 196 -12 33 -28 62 -36 64 -19 4 -83 49 -105 73 -17 18
-16 19 17 20 30 0 32 1 15 12 -28 18 -92 78 -81 76 6 -1 35 -1 65 0 47 2 52 4
33 13 -13 6 -23 15 -23 20 0 4 -6 8 -14 8 -7 0 -20 8 -27 17 -10 11 -10 14 -1
9 6 -4 12 -2 12 4 0 6 -7 13 -15 16 -23 9 -18 34 8 34 21 1 20 2 -8 22 -78 57
-120 114 -147 203 -25 79 -38 101 -38 64z m-130 -415 c0 -10 -44 -43 -57 -44
-11 0 -33 30 -33 44 0 3 20 6 45 6 25 0 45 -3 45 -6z m440 -204 c0 -6 -7 -27
-16 -48 -10 -20 -18 -43 -20 -50 -10 -48 -140 -212 -206 -262 -17 -11 -18 -8
-18 38 l0 51 50 -2 c28 -1 50 -1 50 0 0 1 -22 15 -50 32 l-50 31 0 110 0 110
130 0 c83 0 130 -4 130 -10z m-338 -65 c6 -32 -8 -31 -47 0 l-30 25 36 0 c31
0 37 -4 41 -25z m3 -75 c3 -5 1 -10 -4 -10 -6 0 -11 5 -11 10 0 6 2 10 4 10 3
0 8 -4 11 -10z m-4 -137 c0 -5 2 -18 3 -31 4 -35 -8 -34 -44 3 l-34 35 37 0
c20 0 37 -3 38 -7z m146 -168 c-27 -25 -53 -45 -58 -45 -5 0 -9 14 -9 30 0 26
4 30 28 31 15 0 21 3 15 6 -27 10 -11 23 30 23 l42 -1 -48 -44z m433 25 c-31
-24 -33 -24 -55 0 -18 20 -17 20 31 20 l49 0 -25 -20z m-1690 -44 c0 -3 -4 -8
-10 -11 -5 -3 -10 -1 -10 4 0 6 5 11 10 11 6 0 10 -2 10 -4z m1840 -56 c0 -10
-10 -25 -22 -33 l-23 -16 22 0 c21 -1 23 -6 22 -54 -2 -52 -3 -54 -43 -75 -22
-12 -48 -22 -56 -22 -16 0 -80 52 -80 65 0 4 36 5 80 3 44 -2 80 0 80 4 0 5
-3 8 -8 8 -4 0 -21 12 -38 28 -16 15 -47 40 -67 55 -20 15 -37 32 -37 37 0 9
36 14 123 17 39 1 47 -2 47 -17z m-594 -9 c-15 -14 -18 -14 -33 1 -15 16 -14
17 16 16 29 -1 31 -3 17 -17z m14 -133 c0 -3 -15 -19 -32 -34 -33 -27 -33 -27
-36 -5 -2 12 -1 28 1 35 5 12 67 17 67 4z m-1330 -97 c0 -8 -43 -41 -55 -41
-3 0 -5 11 -5 25 0 21 5 25 30 25 17 0 30 -4 30 -9z"/>
<path d="M3156 7207 c-11 -8 -17 -23 -14 -38 2 -19 10 -25 34 -27 37 -4 51 24
27 57 -17 25 -23 26 -47 8z"/>
<path d="M5624 7179 c4 -13 10 -33 13 -44 6 -19 6 -19 -20 -2 -28 18 -47 22
-47 9 0 -4 15 -13 33 -20 24 -9 29 -15 18 -21 -8 -5 -24 -8 -37 -6 -18 2 -24
-3 -24 -16 0 -20 24 -26 35 -9 3 6 15 10 26 10 20 0 20 0 -1 -29 -12 -18 -16
-32 -10 -36 5 -3 14 5 19 18 18 47 38 40 32 -10 -2 -14 16 -26 28 -19 5 4 3
19 -6 37 -18 37 -8 52 16 23 9 -11 22 -19 29 -16 20 6 14 16 -19 31 -23 10
-28 16 -18 22 8 5 24 9 37 9 13 0 22 6 22 15 0 17 -25 20 -35 5 -8 -13 -35
-13 -35 -1 0 5 7 17 16 26 12 12 14 19 5 28 -8 8 -14 2 -22 -21 -14 -41 -27
-41 -31 0 -2 17 -9 34 -17 36 -11 4 -12 -1 -7 -19z"/>
<path d="M4423 7144 c-3 -8 0 -27 7 -42 8 -15 14 -30 14 -34 1 -3 4 -10 9 -14
4 -4 7 -15 7 -25 0 -17 -3 -17 -36 3 -20 12 -39 29 -41 39 -5 16 -45 20 -59 6
-13 -13 8 -47 29 -47 12 0 40 -11 61 -24 l40 -24 -35 -8 c-19 -4 -46 -8 -61
-9 -33 0 -53 -18 -45 -39 8 -20 41 -21 57 -1 7 8 16 13 20 10 5 -3 11 -1 15 5
3 5 17 10 31 10 24 0 24 0 7 -27 -9 -16 -27 -38 -40 -51 -27 -27 -28 -35 -8
-52 21 -18 45 -5 45 24 0 23 38 101 46 94 1 -2 4 -15 6 -30 2 -15 7 -30 11
-34 4 -4 4 -17 1 -30 -9 -34 6 -53 34 -43 23 9 30 33 11 44 -11 7 -22 33 -33
77 -6 27 -5 27 19 16 14 -6 25 -15 25 -20 0 -4 5 -8 11 -8 6 0 19 -10 29 -22
18 -22 20 -22 36 -6 22 21 11 48 -19 48 -31 0 -82 39 -69 52 6 6 32 11 58 11
45 2 49 4 49 27 0 28 -32 41 -46 19 -7 -12 -89 -42 -89 -33 0 16 42 83 55 87
20 8 19 43 -1 51 -21 8 -46 -12 -42 -33 1 -9 -7 -34 -19 -55 l-20 -40 -13 38
c-6 20 -9 47 -6 59 9 38 -37 67 -51 31z"/>
<path d="M8822 7137 c-9 -10 -7 -17 8 -30 11 -9 20 -26 20 -37 0 -17 -3 -19
-18 -11 -10 5 -24 17 -31 25 -14 17 -41 11 -41 -10 0 -8 3 -14 8 -15 29 -3 58
-11 66 -19 11 -11 -40 -33 -55 -24 -5 3 -12 -2 -15 -10 -12 -31 1 -36 38 -16
44 23 56 13 27 -24 -21 -27 -18 -46 7 -46 11 0 20 22 12 33 -1 1 4 13 11 26
10 19 15 21 22 10 5 -8 9 -26 9 -40 0 -31 7 -39 26 -32 18 7 18 27 0 42 -8 6
-16 20 -19 31 -4 16 -2 17 21 9 15 -6 30 -15 33 -21 8 -13 39 -3 39 12 0 11
-7 14 -53 25 -24 5 -27 8 -16 21 8 9 21 13 35 10 22 -6 40 16 28 35 -7 11 -34
12 -34 1 0 -5 -11 -14 -25 -20 -32 -15 -34 4 -6 37 11 13 17 29 14 37 -7 19
-22 18 -29 -3 -21 -65 -27 -75 -36 -59 -5 9 -10 28 -11 43 -3 30 -19 40 -35
20z"/>
<path d="M6546 7114 c-3 -9 -6 -27 -6 -40 0 -20 5 -24 30 -24 40 0 59 33 34
61 -21 23 -50 25 -58 3z"/>
<path d="M3611 6986 c-17 -20 -2 -48 23 -44 24 3 34 37 14 49 -18 12 -24 11
-37 -5z"/>
<path d="M2975 6857 c5 -25 4 -27 -14 -18 -32 17 -38 12 -11 -9 l25 -20 -22 0
c-13 0 -23 -5 -23 -11 0 -6 9 -8 20 -4 22 7 26 -5 8 -23 -9 -9 -8 -12 4 -12 9
0 19 8 21 18 4 14 6 14 12 -5 4 -13 11 -20 16 -17 5 3 5 14 -1 25 -8 13 -7 19
0 19 6 0 8 5 5 10 -3 6 3 10 14 10 12 0 21 5 21 11 0 6 -6 9 -14 6 -20 -8 -28
4 -15 20 7 8 8 13 1 13 -5 0 -13 -8 -17 -17 -6 -16 -8 -15 -21 7 l-15 25 6
-28z"/>
<path d="M8634 6856 c-9 -24 4 -48 23 -44 12 2 18 12 18 28 0 29 -32 41 -41
16z"/>
<path d="M7120 6808 l-1 -33 -20 24 c-11 13 -22 21 -26 17 -3 -3 2 -15 12 -26
18 -20 17 -20 -8 -20 -15 0 -27 -4 -27 -10 0 -5 12 -10 27 -10 25 0 26 0 8
-20 -10 -11 -15 -23 -12 -26 4 -4 15 4 26 17 l20 24 1 -32 c0 -18 4 -33 10
-33 5 0 7 14 4 33 l-5 32 19 -22 c11 -13 23 -23 26 -23 11 0 6 19 -10 34 -14
15 -13 16 10 16 14 0 26 5 26 10 0 6 -12 10 -27 10 -25 0 -26 0 -8 20 10 11
15 23 12 26 -4 4 -16 -4 -27 -17 l-21 -24 4 28 c2 15 0 30 -4 33 -5 3 -9 -10
-9 -28z"/>
<path d="M3020 6790 c0 -5 7 -10 16 -10 8 0 12 5 9 10 -3 6 -10 10 -16 10 -5
0 -9 -4 -9 -10z"/>
<path d="M6248 6775 c-3 -3 -4 -27 -1 -53 l4 -47 -35 38 c-34 38 -56 42 -56
11 0 -8 10 -18 23 -23 12 -5 30 -18 40 -29 18 -19 17 -19 -27 -16 -25 1 -50 5
-56 9 -6 4 -10 -5 -10 -20 0 -25 1 -26 50 -19 30 4 50 3 50 -3 0 -12 -29 -38
-52 -46 -20 -7 -24 -32 -6 -43 7 -4 16 0 22 11 6 10 21 30 34 44 l23 26 -2
-50 c-2 -69 -1 -75 15 -75 19 0 28 28 16 50 -12 23 -13 70 -1 70 10 0 31 -24
46 -54 12 -25 38 -28 43 -5 2 10 -11 25 -33 37 -52 31 -46 46 15 38 46 -6 50
-5 50 14 0 18 -5 20 -55 17 -54 -3 -54 -3 -37 16 9 11 27 23 40 28 28 11 30
49 2 49 -11 0 -20 -4 -20 -9 0 -4 -14 -24 -31 -42 l-30 -34 4 35 c3 19 7 44 9
55 3 18 -21 33 -34 20z"/>
<path d="M4099 6723 c-15 -49 -68 -166 -77 -173 -4 -3 -15 -22 -26 -42 -21
-42 -166 -198 -184 -198 -7 0 -12 -4 -12 -8 0 -5 -11 -15 -25 -22 -14 -7 -25
-16 -25 -19 0 -3 38 -6 85 -5 47 0 85 -2 85 -6 0 -9 -60 -64 -109 -99 l-44
-31 54 0 53 0 -39 -41 c-22 -22 -68 -61 -102 -86 -35 -25 -63 -47 -63 -49 0
-3 44 -5 98 -4 53 1 100 1 105 1 9 -1 -56 -59 -111 -98 -23 -17 -36 -33 -30
-35 7 -2 88 -4 180 -4 l168 1 0 -1992 0 -1993 40 0 40 0 0 1990 0 1990 128 1
c197 2 212 3 210 14 -2 6 -27 28 -58 51 -98 72 -98 74 18 74 96 0 138 11 89
24 -24 6 -63 35 -141 108 l-51 48 55 0 c55 1 55 1 30 18 -46 32 -123 97 -127
107 -2 7 27 11 79 12 46 1 85 2 86 2 2 1 -23 21 -56 46 -55 42 -85 72 -155
156 -25 31 -117 197 -119 216 0 5 -4 18 -9 31 -5 13 -9 27 -9 32 0 5 -4 11 -9
15 -5 3 -15 -12 -22 -32z"/>
<path d="M5816 6654 c-9 -22 17 -49 39 -40 10 3 15 15 13 28 -4 29 -42 37 -52
12z"/>
<path d="M5271 6641 c-13 -24 8 -55 34 -50 28 6 42 34 26 53 -18 22 -48 20
-60 -3z"/>
<path d="M3450 6593 c0 -25 -1 -25 -18 -10 -30 27 -38 20 -11 -9 l24 -27 -28
5 c-15 3 -30 1 -33 -3 -3 -5 10 -9 28 -9 l33 -1 -24 -20 c-13 -11 -21 -22 -17
-26 3 -3 15 2 26 12 20 18 20 17 20 -8 0 -15 5 -27 10 -27 6 0 10 12 10 27 l0
26 25 -23 c30 -28 34 -15 4 16 l-20 22 31 -3 c19 -2 29 2 27 9 -2 6 -14 9 -27
8 -26 -4 -40 12 -40 46 0 12 -4 22 -10 22 -5 0 -10 -12 -10 -27z"/>
<path d="M3486 6585 c-3 -8 -2 -15 3 -15 5 0 14 7 21 15 10 12 10 15 -3 15 -8
0 -17 -7 -21 -15z"/>
<path d="M5696 6398 c-16 -22 -11 -38 22 -63 13 -11 47 -124 39 -132 -10 -9
-109 56 -121 78 -16 32 -61 38 -76 9 -6 -11 -8 -30 -5 -40 6 -19 40 -35 61
-28 5 2 36 -13 69 -31 l60 -34 -64 -19 c-35 -11 -71 -16 -80 -12 -55 25 -89
-13 -61 -67 14 -25 55 -24 73 2 13 18 123 57 133 46 9 -9 -58 -115 -76 -120
-24 -6 -37 -52 -20 -72 15 -18 51 -20 68 -3 7 7 12 25 12 40 0 26 48 138 60
138 12 0 40 -132 31 -148 -5 -10 -5 -27 0 -39 11 -30 63 -32 79 -3 11 21 8 32
-20 65 -17 20 -54 135 -43 135 21 0 107 -59 119 -82 19 -37 66 -39 82 -4 15
33 -9 67 -46 64 -26 -2 -132 49 -132 64 0 3 15 10 33 14 17 4 39 10 47 12 8 3
33 5 55 7 60 3 62 3 68 24 6 25 -19 61 -43 61 -10 0 -25 -9 -32 -19 -14 -20
-104 -51 -125 -44 -7 3 -13 -1 -13 -8 0 -7 -2 -10 -5 -7 -9 9 50 106 77 127
43 34 44 67 2 89 -27 14 -54 -12 -54 -52 0 -25 -15 -65 -29 -76 -4 -3 -12 -18
-20 -35 -13 -30 -13 -30 -22 -7 -16 43 -22 77 -21 121 1 25 -4 51 -10 58 -16
20 -55 15 -72 -9z"/>
<path d="M4940 6332 c0 -5 7 -23 16 -41 21 -42 11 -50 -27 -22 -24 18 -33 20
-44 11 -18 -15 -10 -30 16 -30 11 0 30 -5 41 -11 17 -9 18 -13 7 -20 -8 -5
-26 -9 -41 -9 -21 0 -28 -5 -28 -20 0 -25 10 -25 54 1 20 12 36 18 36 15 0
-13 -24 -56 -32 -56 -12 0 -10 -28 3 -36 15 -9 27 6 33 40 9 51 24 52 31 2 5
-28 12 -46 21 -46 21 0 27 20 11 38 -8 9 -17 27 -20 39 -4 20 -3 22 16 12 12
-7 30 -18 39 -27 16 -13 18 -13 24 1 8 22 -3 37 -29 37 -12 0 -29 4 -37 10
-11 7 -9 11 14 19 15 6 31 9 36 6 4 -3 13 2 20 10 19 22 -13 31 -42 11 -41
-29 -51 -20 -27 24 12 22 20 43 16 46 -12 13 -37 -6 -37 -28 0 -13 -4 -30 -10
-38 -7 -11 -11 -9 -19 13 -6 16 -11 35 -11 43 0 8 -7 14 -15 14 -8 0 -15 -4
-15 -8z"/>
<path d="M3280 6215 c-17 -20 -5 -45 20 -45 11 0 23 7 26 15 6 15 -11 45 -26
45 -4 0 -13 -7 -20 -15z"/>
<path d="M6655 5701 l-40 -6 0 -1940 0 -1940 37 4 38 3 2 1944 c2 1069 3 1943
3 1942 0 0 -18 -4 -40 -7z"/>
<path d="M780 5688 c0 -7 0 -872 0 -1923 0 -1050 0 -1918 0 -1928 0 -16 9 -17
90 -15 l90 3 0 1935 0 1935 -90 3 c-68 2 -90 0 -90 -10z"/>
<path d="M1060 3760 l0 -1940 155 0 155 0 0 1940 0 1940 -155 0 -155 0 0
-1940z"/>
<path d="M1780 3760 l0 -1940 148 0 147 0 0 1940 0 1940 -147 0 -148 0 0
-1940z"/>
<path d="M2580 3760 l0 -1940 90 0 90 0 0 1940 0 1940 -90 0 -90 0 0 -1940z"/>
<path d="M2890 3760 l0 -1940 40 0 c31 0 40 4 40 18 0 9 1 882 3 1940 l2 1922
-42 0 -43 0 0 -1940z"/>
<path d="M3178 3758 l-3 -1943 143 3 142 3 0 1940 0 1939 -140 0 -140 0 -2
-1942z"/>
<path d="M3590 3761 l0 -1940 143 -3 142 -3 -3 1943 -2 1942 -140 0 -140 0 0
-1939z"/>
<path d="M4258 3758 l-3 -1943 158 3 157 3 0 1939 0 1940 -155 0 -155 0 -2
-1942z"/>
<path d="M4670 3760 l0 -1940 105 0 105 0 0 1940 0 1940 -105 0 -105 0 0
-1940z"/>
<path d="M4980 5688 c0 -7 -1 -880 -3 -1941 l-2 -1927 43 0 42 0 0 1940 0
1940 -40 0 c-25 0 -40 -5 -40 -12z"/>
<path d="M5190 3761 l0 -1939 38 -3 37 -4 -3 1942 -2 1943 -35 0 -35 0 0
-1939z"/>
<path d="M5368 3758 l-3 -1943 53 3 52 4 0 1939 0 1939 -50 0 -50 0 -2 -1942z"/>
<path d="M5678 3777 c-2 -1058 -2 -1931 0 -1940 3 -15 20 -17 143 -17 l139 0
2 1940 3 1940 -142 0 -143 0 -2 -1923z"/>
<path d="M6090 3770 c0 -1062 -1 -1933 -2 -1937 -2 -5 16 -9 40 -11 l42 -3 0
1940 0 1941 -40 0 -40 0 0 -1930z"/>
<path d="M6370 5693 c0 -5 0 -867 0 -1918 0 -1050 0 -1920 0 -1932 0 -22 4
-23 70 -23 l70 0 0 1940 0 1940 -70 0 c-38 0 -70 -3 -70 -7z"/>
<path d="M7480 3760 l0 -1940 40 0 40 0 0 1940 0 1940 -40 0 -40 0 0 -1940z"/>
<path d="M9565 5663 c1 -21 3 -1216 4 -2655 l1 -2618 50 0 50 0 0 2655 0 2655
-54 0 -53 0 2 -37z"/>
<path d="M9770 3045 l0 -2655 40 0 40 0 2 2655 3 2655 -42 0 -43 0 0 -2655z"/>
<path d="M395 5642 c-3 -3 -5 -1186 -5 -2629 l0 -2623 40 0 40 0 0 2628 0
2629 -35 0 c-19 0 -37 -3 -40 -5z"/>
<path d="M574 5635 c-2 -5 -3 -1187 -2 -2625 l3 -2615 53 -3 52 -3 -2 2628 -3
2628 -49 0 c-26 0 -50 -4 -52 -10z"/>
<path d="M1831 1529 c59 -64 113 -175 200 -418 l48 -134 -27 -20 c-59 -44
-163 -159 -210 -229 -67 -104 -97 -199 -97 -313 0 -76 4 -98 25 -140 31 -63
78 -95 136 -95 53 0 80 31 69 80 -8 35 -20 38 -35 10 -17 -32 -57 -26 -76 13
-25 47 -29 158 -10 241 27 114 71 191 164 286 l83 85 26 -70 c14 -38 45 -126
70 -195 88 -247 182 -404 260 -436 51 -22 120 -18 133 6 9 17 4 27 -33 68 -80
86 -100 130 -222 486 l-82 240 94 89 c51 49 114 121 140 159 53 81 103 213
103 276 l0 43 -47 -3 -48 -3 -7 -55 c-15 -123 -80 -241 -193 -349 -36 -35 -67
-62 -69 -60 -2 2 -24 56 -49 120 -51 132 -118 269 -154 317 l-24 32 -99 0 -98
0 29 -31z"/>
<path d="M4672 1543 c-4 -10 -7 -57 -7 -105 0 -72 4 -91 21 -115 21 -28 108
-82 118 -72 3 3 -2 27 -10 54 -18 58 -12 122 17 199 10 28 19 52 19 54 0 1
-34 2 -75 2 -63 0 -77 -3 -83 -17z"/>
<path d="M5217 1528 c-41 -55 -128 -203 -242 -413 -136 -251 -213 -380 -283
-474 -138 -184 -246 -202 -318 -54 -37 74 -45 203 -19 298 21 78 70 140 122
154 95 27 172 -81 133 -185 -15 -38 -6 -41 38 -11 138 91 56 273 -123 272 -74
-1 -148 -38 -206 -103 -147 -168 -103 -520 76 -603 48 -22 142 -25 190 -5 80
34 169 145 275 344 29 56 60 102 68 102 8 0 29 -7 46 -15 l33 -16 -19 -97
c-33 -163 -9 -293 71 -383 38 -44 38 -45 44 -149 3 -58 12 -123 20 -145 13
-38 16 -40 62 -43 l48 -3 -8 28 c-4 15 -9 84 -12 153 -4 107 -1 143 21 250 14
69 32 145 39 170 l14 45 0 -51 c1 -62 25 -112 59 -120 14 -4 48 -4 75 -2 84 8
138 76 164 205 4 22 13 33 30 37 13 3 30 8 38 12 12 4 10 -12 -8 -89 -68 -282
-78 -465 -34 -605 10 -30 13 -32 61 -32 44 0 49 2 43 18 -39 101 -31 274 23
497 l26 110 7 -53 c10 -77 36 -102 108 -102 97 0 162 62 184 177 11 59 12 60
53 72 23 7 60 28 82 47 44 37 87 115 78 139 -6 16 -46 21 -46 6 0 -15 -82
-101 -111 -116 -37 -20 -49 -19 -49 3 0 39 -33 113 -62 137 -34 29 -84 33
-127 10 l-29 -14 -6 41 c-9 52 -70 118 -111 118 -24 0 -26 -3 -19 -22 11 -35
10 -96 -5 -167 -13 -55 -19 -67 -54 -92 -50 -36 -65 -36 -73 -1 -24 114 -63
156 -137 149 -26 -2 -56 -12 -67 -22 -20 -18 -20 -17 -20 19 0 62 -40 119 -93
134 l-25 7 54 189 c73 255 72 276 -7 276 -43 0 -51 -4 -72 -32z m-132 -432
c-25 -82 -45 -155 -45 -162 0 -11 -10 -13 -42 -8 -24 4 -44 7 -45 8 0 1 38 74
85 164 48 90 88 159 89 155 2 -5 -17 -75 -42 -157z m152 -113 c-7 -65 -105
-475 -106 -441 -3 55 93 508 106 508 3 0 3 -30 0 -67z m689 -154 c21 -42 18
-59 -11 -59 -36 0 -79 -24 -104 -57 -18 -25 -20 -26 -21 -8 0 27 46 125 72
152 24 26 39 19 64 -28z m-486 1 c27 -54 26 -60 -16 -60 -30 0 -45 -8 -80 -44
-50 -50 -53 -44 -20 37 49 118 80 137 116 67z m23 -157 c-10 -75 -25 -116 -50
-140 l-25 -26 -21 22 c-55 54 4 180 85 181 14 0 16 -7 11 -37z m487 9 c0 -48
-28 -127 -54 -151 l-24 -23 -22 22 c-43 43 -10 144 55 170 35 15 45 11 45 -18z"/>
<path d="M6953 1527 c-16 -18 -39 -50 -52 -70 -12 -20 -25 -37 -28 -37 -3 0
-21 14 -40 30 -90 79 -217 105 -293 59 -89 -53 -143 -139 -143 -225 0 -63 27
-105 83 -134 54 -28 61 -25 44 15 -46 111 22 254 129 272 37 6 120 -26 165
-63 l23 -19 -20 -47 c-35 -82 -71 -207 -86 -301 -20 -122 -20 -335 0 -412 43
-166 141 -265 262 -265 82 0 194 75 265 178 l30 44 18 -27 c39 -60 110 -81
169 -50 47 24 100 94 129 172 l27 73 43 0 42 0 0 -54 c0 -108 37 -166 107
-166 25 0 53 5 65 11 16 9 23 7 35 -10 22 -33 89 -29 141 9 23 16 49 41 58 55
l17 26 17 -39 c20 -45 49 -68 103 -83 51 -14 98 3 153 53 111 103 265 419 197
406 -11 -2 -40 -50 -78 -124 -82 -166 -118 -213 -196 -254 -48 -25 -59 -13
-59 65 0 57 2 63 27 74 86 39 143 121 143 204 0 64 -24 87 -88 87 -54 0 -109
-30 -151 -82 -33 -41 -70 -136 -71 -179 0 -24 -10 -49 -29 -75 -27 -38 -81
-92 -81 -83 0 3 20 88 44 190 60 254 78 366 79 489 1 87 -2 113 -20 152 -24
54 -46 68 -102 68 -31 0 -44 -6 -60 -26 -62 -78 -56 -313 10 -420 24 -40 24
-47 -2 -33 -54 28 -151 -22 -205 -106 -78 -123 -159 -108 -104 19 32 76 21
156 -21 156 -21 0 -49 -21 -62 -47 -12 -23 -21 -26 -70 -28 -70 -4 -132 -37
-171 -94 -30 -43 -66 -147 -66 -190 0 -57 -122 -201 -203 -240 -57 -28 -89
-26 -126 5 -48 40 -64 112 -65 279 0 159 18 269 65 398 42 118 38 115 96 73
82 -58 138 -78 213 -74 86 5 119 28 162 116 30 61 33 74 33 162 -1 52 -6 107
-13 123 l-12 27 -224 0 -224 0 -29 -33z m392 -20 c77 -77 44 -260 -56 -309
-33 -17 -40 -17 -95 -3 -61 16 -164 77 -164 96 0 20 88 136 135 177 49 43 100
71 129 72 10 0 33 -15 51 -33z m701 -144 c8 -31 -13 -250 -26 -273 -13 -23
-32 64 -32 149 -1 111 40 196 58 124z m354 -473 c0 -30 -23 -70 -59 -104 -17
-17 -31 -27 -31 -24 0 28 65 148 80 148 6 0 10 -9 10 -20z m-835 -47 c16 -128
3 -181 -64 -252 -59 -63 -91 -16 -66 100 18 88 52 165 83 189 13 11 28 20 32
20 4 0 11 -26 15 -57z m409 41 c9 -23 -41 -222 -67 -268 -29 -53 -44 -56 -53
-11 -9 47 0 109 26 176 38 103 78 146 94 103z"/>
<path d="M3815 1055 c-56 -20 -105 -75 -105 -119 0 -52 -107 -259 -169 -326
-27 -30 -50 -50 -50 -45 -1 6 17 76 38 157 22 81 37 158 34 170 -3 13 -17 38
-30 56 -19 25 -32 33 -52 31 -14 -1 -38 1 -52 5 -78 22 -176 -53 -222 -168
-16 -38 -45 -94 -66 -125 -45 -65 -108 -128 -118 -118 -9 10 15 100 44 167 14
30 27 83 30 117 5 56 3 63 -20 87 -44 44 -120 28 -168 -36 l-17 -23 -7 28
c-18 70 -104 77 -172 14 l-23 -20 0 25 c0 43 -36 78 -80 78 -76 0 -116 -32
-92 -71 20 -32 13 -73 -33 -205 -53 -149 -58 -202 -20 -239 27 -28 80 -33 110
-11 15 11 19 27 20 72 2 72 47 191 102 264 62 83 63 72 12 -96 -15 -50 -30
-112 -34 -137 -6 -41 -4 -49 18 -71 28 -28 95 -37 101 -13 2 6 10 50 19 96 9
46 28 108 42 137 26 54 104 148 105 127 0 -7 -11 -47 -25 -90 -63 -200 -63
-258 -3 -289 54 -28 93 -12 175 71 l72 74 7 -35 c4 -20 18 -49 31 -65 21 -24
32 -29 70 -29 24 0 53 5 65 11 16 9 23 7 35 -10 23 -34 90 -29 139 10 48 38
113 124 159 209 l34 65 1 -70 c0 -69 -1 -71 -31 -89 -42 -25 -73 -94 -61 -137
11 -46 51 -73 95 -65 73 14 113 68 124 166 6 60 7 61 68 111 91 74 144 153
129 193 -9 24 -42 20 -49 -6 -12 -39 -57 -97 -99 -129 l-41 -30 -7 43 c-12 80
-8 152 11 194 10 23 24 45 30 48 15 10 14 22 -5 40 -18 19 -18 19 -69 1z
m-381 -171 c7 -18 -36 -200 -61 -257 -37 -86 -67 -70 -60 33 9 134 95 293 121
224z"/>
</g>
</svg>
